<svg id="Layer_1" data-name="Layer 1" xmlns="http://www.w3.org/2000/svg" xmlns:xlink="http://www.w3.org/1999/xlink" viewBox="0 0 519.5 116.91"><defs><style>.cls-1,.cls-2{fill:none;}.cls-1{clip-rule:evenodd;}.cls-3{clip-path:url(#clip-path);}.cls-4{clip-path:url(#clip-path-2);}.cls-5{fill:#85cb00;}.cls-6{clip-path:url(#clip-path-3);}.cls-7{clip-path:url(#clip-path-4);}.cls-8{clip-path:url(#clip-path-5);}.cls-9{clip-path:url(#clip-path-6);}.cls-10{clip-path:url(#clip-path-8);}.cls-11{clip-path:url(#clip-path-9);}.cls-12{isolation:isolate;}.cls-13{clip-path:url(#clip-path-10);}.cls-14{clip-path:url(#clip-path-11);}.cls-15{clip-path:url(#clip-path-12);}.cls-16{clip-path:url(#clip-path-13);}.cls-17{clip-path:url(#clip-path-14);}.cls-18{clip-path:url(#clip-path-15);}.cls-19{clip-path:url(#clip-path-17);}.cls-20{clip-path:url(#clip-path-19);}</style><clipPath id="clip-path"><path class="cls-1" d="M110,65.25c-1.61-.17-3.54-2.36-4.7-5.33-1-2.63-2.63-5.85-6-7.43a10.81,10.81,0,0,0-9.92.72c-3.53,2.08-5,5.66-6.28,8.82-1.65,4.06-2.68,6.18-6.19,6.42-4.18.28-5.24-1.92-7.07-6.5-1.62-4-3.83-9.56-10.45-10.42-8.46-1.1-11.07,5.15-13,9.71-2.08,4.94-3.19,7.09-8,6.25-2.92-.51-3.74-2.06-5.16-5.25a20.59,20.59,0,0,0-3.12-5.35,8.64,8.64,0,0,0-10.4-2.1,8.24,8.24,0,0,0-3.33,3.61c-.2.4-.39.8-.58,1.19-.27.56-.52,1.08-.79,1.53l4.6,3.21c.43-.72.76-1.4,1.08-2.07.16-.33.32-.67.49-1a2.82,2.82,0,0,1,1-1.22,3.39,3.39,0,0,1,3.93.85,15,15,0,0,1,2.18,3.88c1.49,3.33,3.35,7.48,9.23,8.51,9.16,1.6,11.89-4.9,13.88-9.65s3.06-6.83,7.31-6.28c3.31.43,4.41,2.78,6,6.9,1.72,4.28,4,10.08,11.45,10.08.33,0,.67,0,1,0,7-.47,9.26-5.93,10.89-9.93,1.07-2.63,2-4.9,3.89-6a5.78,5.78,0,0,1,5-.49c1.54.73,2.4,2.5,3.11,4.31,2,5.11,5.52,8.53,9.23,8.92,2.3.24,5.71-.51,8.83-5.47l-4.56-3.27c-.89,1.41-2.25,3.05-3.73,2.9"/></clipPath><clipPath id="clip-path-2"><rect class="cls-2" x="9.82" y="0.32" width="481.61" height="109.46"/></clipPath><clipPath id="clip-path-3"><rect class="cls-2" x="15.12" y="5.34" width="104.2" height="43.28"/></clipPath><clipPath id="clip-path-4"><rect class="cls-2" x="15.04" y="4.9" width="462" height="105"/></clipPath><clipPath id="clip-path-5"><rect class="cls-2" x="15.04" y="4.9" width="105" height="44"/></clipPath><clipPath id="clip-path-6"><path class="cls-1" d="M119.06,44.73c-1.42-22.09-24.19-39.4-51.85-39.4S16.79,22.64,15.37,44.73l-.25,3.88H119.31ZM23.21,41.32c3.48-16.37,21.92-28.69,44-28.69s40.53,12.32,44,28.69Z"/></clipPath><clipPath id="clip-path-8"><rect class="cls-2" x="15.04" y="78.34" width="104.36" height="35.19"/></clipPath><clipPath id="clip-path-9"><rect class="cls-2" x="15.04" y="9.24" width="462" height="105"/></clipPath><clipPath id="clip-path-10"><rect class="cls-2" x="14.04" y="78.24" width="106" height="36"/></clipPath><clipPath id="clip-path-11"><path class="cls-1" d="M15.37,82.37C16.1,91.12,22,99.14,32.11,105c9.55,5.52,22,8.56,35.1,8.56s25.56-3,35.11-8.56c10.07-5.82,16-13.84,16.74-22.59l.33-4H15Zm95.47,3.4c-4.32,11.52-22.58,20.32-43.63,20.32s-39.3-8.8-43.62-20.32Z"/></clipPath><clipPath id="clip-path-12"><rect class="cls-2" x="15.04" y="78.24" width="105" height="36"/></clipPath><clipPath id="clip-path-13"><path class="cls-1" d="M159.73,30.12A42.5,42.5,0,0,1,180.57,25q17.06,0,28,10.71l4.17-4.26a37.74,37.74,0,0,0-14.2-9.35,51.17,51.17,0,0,0-18.23-3.16,49.19,49.19,0,0,0-24.16,5.93,44.12,44.12,0,0,0-16.93,16.38A45.21,45.21,0,0,0,133,64.68a45.18,45.18,0,0,0,6.18,23.46,44,44,0,0,0,16.93,16.38,49.08,49.08,0,0,0,24.16,5.93,50.28,50.28,0,0,0,18.17-3.22,38.26,38.26,0,0,0,14.26-9.41l-4.17-4.26q-11.07,10.83-28,10.83a42.5,42.5,0,0,1-20.84-5.16A37.86,37.86,0,0,1,145,85a39.35,39.35,0,0,1-5.34-20.31A39.35,39.35,0,0,1,145,44.37a38,38,0,0,1,14.71-14.25"/></clipPath><clipPath id="clip-path-14"><rect class="cls-2" x="5.95" y="3.83" width="497.59" height="113.09"/></clipPath><clipPath id="clip-path-15"><polygon class="cls-1" points="301.94 59.53 240.93 59.53 240.93 18.9 234.28 18.9 234.28 107.22 240.93 107.22 240.93 65.21 301.94 65.21 301.94 107.22 308.59 107.22 308.59 18.9 301.94 18.9 301.94 59.53"/></clipPath><clipPath id="clip-path-17"><path class="cls-1" d="M367.24,18.9l-41.42,88.32h7.08l11.45-24.85h52.22l11.57,24.85h7.08L373.8,18.9Zm-20.32,58,23.54-51,23.66,51Z"/></clipPath><clipPath id="clip-path-19"><path class="cls-1" d="M480.67,76.31q10.32-2.9,15.87-10t5.56-17.6q0-14-9.8-21.89T465.25,18.9h-32.8v88.32h6.67V78.33h26.13a69.05,69.05,0,0,0,8.88-.63L496,107.22h7.58Zm-15.42-3.66H439.12V24.71h26.13q14.63,0,22.34,6.24t7.71,17.73q0,11.48-7.71,17.73T465.25,72.65Z"/></clipPath></defs><title>logo</title><g class="cls-3"><g class="cls-4"><rect class="cls-5" x="9.82" y="46.19" width="113.63" height="33.36"/></g></g><g class="cls-6"><g class="cls-7"><g class="cls-8"><g class="cls-9"><g class="cls-8"><rect class="cls-5" x="10.12" y="0.33" width="114.2" height="53.28"/></g></g></g></g></g><g class="cls-10"><g class="cls-11"><g class="cls-12"><g class="cls-13"><g class="cls-14"><g class="cls-15"><rect class="cls-5" x="10.04" y="73.34" width="114.36" height="45.19"/></g></g></g></g></g></g><g class="cls-16"><g class="cls-17"><rect class="cls-5" x="127.65" y="13.52" width="90.47" height="102.32"/></g></g><g class="cls-18"><g class="cls-17"><rect class="cls-5" x="228.89" y="13.52" width="85.09" height="99.09"/></g></g><g class="cls-19"><g class="cls-17"><rect class="cls-5" x="320.44" y="13.52" width="100.16" height="99.09"/></g></g><g class="cls-20"><g class="cls-17"><rect class="cls-5" x="427.07" y="13.52" width="81.85" height="99.09"/></g></g></svg>