<svg id="Layer_1" data-name="Layer 1" xmlns="http://www.w3.org/2000/svg" viewBox="0 0 50 50"><title>cart-icon</title><path d="M19.05,26.21l-2.26-4.93q-2.22-4.84-4.43-9.71a.46.46,0,0,0-.51-.32c-1,0-2,0-2.94,0A2,2,0,0,1,7,8.46,1.67,1.67,0,0,1,8.61,7.31c1.56,0,3.12,0,4.68,0a2.47,2.47,0,0,1,2.23,1.52c.54,1.1,1.08,2.19,1.61,3.28a.44.44,0,0,0,.47.3H42.18a3.8,3.8,0,0,1,.89.1,2,2,0,0,1,1.58,1.9c0,1,0,1.93,0,2.9v7.46a2.18,2.18,0,0,1-2.09,2.38c-3.3.38-6.6.73-9.9,1.1l-9.19,1-3.1.35a1.59,1.59,0,0,0-1.36.85,1.09,1.09,0,0,0,.55,1.57,2.64,2.64,0,0,0,1,.17H41.59a1.75,1.75,0,0,1,1.69,2.44,1.67,1.67,0,0,1-1.7,1.13H21a11.65,11.65,0,0,1-2.29-.14,4.25,4.25,0,0,1-3.53-3.23A4.29,4.29,0,0,1,16.76,28c.62-.53,1.29-1,1.94-1.47Z"/><path d="M12.28,40.8a3.45,3.45,0,1,1,3.46,3.43A3.45,3.45,0,0,1,12.28,40.8Z"/><path d="M35.63,40.79a3.45,3.45,0,0,1,3.46-3.46,3.46,3.46,0,0,1,0,6.91A3.45,3.45,0,0,1,35.63,40.79Z"/></svg>