<svg id="Layer_1" data-name="Layer 1" xmlns="http://www.w3.org/2000/svg" viewBox="0 0 50 50"><title>cart-icon-01</title><path d="M16.72,25.42c-.92-2-1.83-4-2.73-6q-2.7-5.88-5.37-11.76A.57.57,0,0,0,8,7.3c-1.18,0-2.37,0-3.55,0A2.39,2.39,0,0,1,2.18,3.92a2,2,0,0,1,1.9-1.4c1.89,0,3.78,0,5.67,0a3,3,0,0,1,2.7,1.84c.65,1.32,1.31,2.64,2,4a.54.54,0,0,0,.57.36H41.71c1,0,2,0,3,0a4.92,4.92,0,0,1,1.09.12,2.36,2.36,0,0,1,1.9,2.29c.05,1.18,0,2.35,0,3.52v9a2.66,2.66,0,0,1-2.54,2.88c-4,.46-8,.89-12,1.33L22.09,29.15l-3.75.42a2,2,0,0,0-1.66,1,1.32,1.32,0,0,0,.67,1.89,3.34,3.34,0,0,0,1.18.22H44a2.13,2.13,0,0,1,2,3A2,2,0,0,1,44,37.06H19.12a14.33,14.33,0,0,1-2.78-.18A5.26,5.26,0,0,1,14,27.53c.74-.64,1.56-1.19,2.34-1.79Z"/><path d="M8.52,43.09a4.17,4.17,0,1,1,4.2,4.16A4.18,4.18,0,0,1,8.52,43.09Z"/><path d="M36.81,43.07A4.17,4.17,0,1,1,41,47.25,4.17,4.17,0,0,1,36.81,43.07Z"/></svg>